<svg width="14" height="17" viewBox="0 0 14 17" fill="none" xmlns="http://www.w3.org/2000/svg">
<path fill-rule="evenodd" clip-rule="evenodd" d="M12.8962 11.0723C12.7254 10.9128 12.564 10.7624 12.4793 10.6006C12.4744 10.5908 12.4691 10.5813 12.4638 10.5719L12.4612 10.567C12.1614 10.0571 12.0526 8.82611 11.988 8.09099C11.9785 7.98252 11.9691 7.87859 11.96 7.7807C11.9592 7.77238 11.9581 7.76407 11.9566 7.75235C11.8122 6.67481 11.4536 5.12218 10.5657 3.84357C9.94062 2.9429 9.1609 2.34232 8.24588 2.05696C8.19259 1.37892 7.657 0.84375 7.00616 0.84375C6.35495 0.84375 5.8194 1.37894 5.76649 2.05737C4.85146 2.34235 4.07175 2.9429 3.44662 3.84357C2.55881 5.12218 2.20012 6.6748 2.05498 7.75575C2.05423 7.76406 2.05312 7.77236 2.05236 7.78143C2.04291 7.87895 2.03383 7.98253 2.02439 8.09062C1.95938 8.82612 1.85089 10.0571 1.54929 10.5703C1.54475 10.5787 1.54023 10.587 1.53456 10.5976C1.44877 10.7624 1.28699 10.9128 1.11615 11.0723C0.708344 11.4529 -0.0509662 12.1574 0.593443 13.4315C0.706451 13.6552 0.924939 13.7905 1.1638 13.7905H12.8486C13.087 13.7905 13.3055 13.6552 13.4189 13.4318C14.0633 12.1577 13.3044 11.4529 12.8962 11.0723Z" fill="#929191"/>
<path fill-rule="evenodd" clip-rule="evenodd" d="M8.6081 13.9474H5.52852C5.3592 13.9474 5.25942 14.0169 5.20575 14.0782C5.12676 14.1674 5.09274 14.2894 5.10975 14.4244C5.23221 15.3915 6.06032 16.1198 7.03657 16.1198C8.02303 16.1198 8.85226 15.3814 8.96564 14.4021C8.97282 14.3378 8.97848 14.1791 8.87152 14.0589C8.80576 13.9848 8.71204 13.9474 8.6081 13.9474Z" fill="#929191"/>
</svg>
