<svg width="19" height="19" viewBox="0 0 19 19" fill="none" xmlns="http://www.w3.org/2000/svg">
<path d="M4.82262 2.08156C3.845 1.09065 2.46196 0.869953 1.73352 1.58862C1.00507 2.30729 1.20707 3.69319 2.18469 4.6841L14.206 16.8689C15.1837 17.8598 16.5667 18.0805 17.2951 17.3618C18.0236 16.6432 17.8216 15.2573 16.844 14.2664L4.82262 2.08156Z" fill="#EE3338"/>
<path d="M2.11965 14.1673C1.12873 15.1449 0.908038 16.5279 1.62671 17.2564C2.34538 17.9848 3.73127 17.7828 4.72219 16.8052L16.907 4.78383C17.8979 3.80621 18.1186 2.42317 17.3999 1.69473C16.6813 0.966287 15.2954 1.16828 14.3045 2.1459L2.11965 14.1673Z" fill="#EE3338"/>
</svg>
