<svg width="31" height="19" viewBox="0 0 31 19" fill="none" xmlns="http://www.w3.org/2000/svg">
<path d="M1.23182 6.67412L8.59972 17.0518C9.08695 17.7381 10.2468 17.7514 11.1902 17.0816C12.1337 16.4118 12.5035 15.3125 12.0163 14.6262L4.64836 4.24847C4.16112 3.5622 3.00132 3.54886 2.05787 4.21869C1.11442 4.88851 0.744585 5.98785 1.23182 6.67412Z" fill="#79C477"/>
<path d="M25.7965 1.64108L9.09676 13.4975C7.99242 14.2815 7.6322 15.6707 8.29219 16.6003C8.95219 17.5299 10.3825 17.6479 11.4868 16.8639L28.1866 5.00748C29.2909 4.22342 29.6511 2.83423 28.9911 1.90462C28.3311 0.975017 26.9009 0.857025 25.7965 1.64108Z" fill="#79C477"/>
</svg>
