<svg width="29" height="14" viewBox="0 0 29 14" fill="none" xmlns="http://www.w3.org/2000/svg">
<path fill-rule="evenodd" clip-rule="evenodd" d="M8.07956 7.16743L5.54688 13.4362C6.35154 13.7612 7.21141 13.9282 8.07956 13.9282C11.8137 13.9282 14.8407 10.9012 14.8407 7.16743C14.8407 3.43326 11.8137 0.40625 8.07956 0.40625V7.16743Z" fill="white"/>
<path fill-rule="evenodd" clip-rule="evenodd" d="M7.13521 7.47998L4.38523 13.6565C1.94555 12.5702 0.374023 10.1502 0.374023 7.47998H7.13521Z" fill="white"/>
<path fill-rule="evenodd" clip-rule="evenodd" d="M7.2202 6.87047H0.458984C0.458984 3.13668 3.48641 0.109619 7.2202 0.109619V6.87047ZM6.71034 6.3606H1.14952C1.14952 3.28936 3.63909 0.799789 6.71034 0.799789V6.3606Z" fill="white"/>
<path d="M27.6564 0.595215H17.4906C17.2353 0.595215 17.0283 0.833713 17.0283 1.12793C17.0283 1.42214 17.2353 1.66064 17.4906 1.66064H27.6564C27.9116 1.66064 28.1186 1.42214 28.1186 1.12793C28.1186 0.833713 27.9116 0.595215 27.6564 0.595215Z" fill="white"/>
<path d="M27.6564 3.48389H17.4906C17.2353 3.48389 17.0283 3.72239 17.0283 4.0166C17.0283 4.31082 17.2353 4.54935 17.4906 4.54935H27.6564C27.9116 4.54935 28.1186 4.31082 28.1186 4.0166C28.1186 3.72239 27.9116 3.48389 27.6564 3.48389Z" fill="white"/>
<path d="M27.6564 6.448H17.4906C17.2353 6.448 17.0283 6.6865 17.0283 6.98071C17.0283 7.27493 17.2353 7.51346 17.4906 7.51346H27.6564C27.9116 7.51346 28.1186 7.27493 28.1186 6.98071C28.1186 6.6865 27.9116 6.448 27.6564 6.448Z" fill="white"/>
<path d="M27.6564 9.32983H17.4906C17.2353 9.32983 17.0283 9.56833 17.0283 9.86255C17.0283 10.1568 17.2353 10.3953 17.4906 10.3953H27.6564C27.9116 10.3953 28.1186 10.1568 28.1186 9.86255C28.1186 9.56833 27.9116 9.32983 27.6564 9.32983Z" fill="white"/>
<path d="M23.604 12.3184H17.3144C17.1564 12.3184 17.0283 12.5569 17.0283 12.8511C17.0283 13.1453 17.1564 13.3838 17.3144 13.3838H23.604C23.762 13.3838 23.89 13.1453 23.89 12.8511C23.89 12.5569 23.762 12.3184 23.604 12.3184Z" fill="white"/>
</svg>
