<svg width="15" height="17" viewBox="0 0 15 17" fill="none" xmlns="http://www.w3.org/2000/svg">
<path fill-rule="evenodd" clip-rule="evenodd" d="M1.0293 2.33545C1.18048 4.45425 1.32524 6.48388 1.46357 8.42732C1.59661 10.2918 1.72438 12.0829 1.84721 13.8044C1.95266 15.2864 3.19234 16.4686 4.60663 16.4792L7.24739 16.4989V16.5034L7.49723 16.5019L7.55692 16.5011L7.61664 16.5019L7.86648 16.5034V16.4989L10.5072 16.4792C11.9215 16.4686 13.1612 15.2864 13.267 13.8044C13.3895 12.0829 13.5173 10.2918 13.6503 8.42732C13.789 6.48388 13.9338 4.45425 14.0846 2.33545H7.86648H7.54747H7.24739H1.0293ZM3.73886 4.49207C3.99133 4.46826 4.21735 4.65571 4.24116 4.90819L5.07682 13.8449C5.10026 14.0977 4.91315 14.3238 4.6603 14.3472C4.40783 14.371 4.18181 14.1835 4.158 13.9311L3.32237 4.99437C3.29894 4.74152 3.48601 4.5155 3.73886 4.49207ZM11.369 4.49207C11.1165 4.46826 10.8905 4.65571 10.8667 4.90819L10.031 13.8449C10.0076 14.0977 10.195 14.3238 10.4475 14.3472C10.7 14.371 10.926 14.1835 10.9498 13.9311L11.7855 4.99437C11.8093 4.74152 11.6218 4.5155 11.369 4.49207ZM7.55692 4.47051C7.30331 4.47051 7.09544 4.67802 7.09544 4.93162V13.9072C7.09544 14.1612 7.30331 14.3687 7.55692 14.3687C7.8109 14.3687 8.01843 14.1612 8.01843 13.9072V4.93162C8.01843 4.67802 7.8109 4.47051 7.55692 4.47051Z" fill="white"/>
<path fill-rule="evenodd" clip-rule="evenodd" d="M14.1035 0.367834H9.38931C9.37949 0.203802 9.2423 0.0726318 9.07562 0.0726318H6.0554C5.8891 0.0726318 5.75153 0.203802 5.7417 0.367834H1.01766C0.717945 0.367834 0.472656 0.613113 0.472656 0.913208V1.15094H14.6489V0.913208C14.6489 0.613113 14.4036 0.367834 14.1035 0.367834Z" fill="white"/>
</svg>
