<svg width="14" height="17" viewBox="0 0 14 17" fill="none" xmlns="http://www.w3.org/2000/svg">
<path d="M3.30257 14.8895C3.59364 14.8168 3.84435 15.0006 3.86255 15.3001C3.88075 15.5995 3.65955 15.9012 3.36848 15.974L1.16456 16.5246C0.873487 16.5973 0.622772 16.4135 0.604571 16.114C0.586371 15.8146 0.807576 15.5129 1.09865 15.4401L3.30257 14.8895Z" fill="white"/>
<path d="M1.5206 13.585C1.5024 13.2856 1.25169 13.1018 0.960619 13.1745C0.669551 13.2472 0.448348 13.5489 0.466549 13.8484L0.604362 16.1159C0.622563 16.4153 0.873275 16.5991 1.16434 16.5264C1.45541 16.4537 1.67661 16.152 1.65841 15.8525L1.5206 13.585Z" fill="white"/>
<path d="M3.70152 14.9703L1.32872 13.2306L0.857422 16.3612L3.70152 14.9703Z" fill="white"/>
<path fill-rule="evenodd" clip-rule="evenodd" d="M8.63208 3.56112L10.7203 5.09183C11.0071 5.30272 11.0699 5.70939 10.8593 5.99626L4.57661 14.566C4.36609 14.8528 3.95943 14.9156 3.67218 14.705L1.584 13.1743C1.29713 12.9634 1.2344 12.5568 1.44492 12.2699L7.72761 3.70019C7.93813 3.41295 8.34483 3.3506 8.63208 3.56112ZM4.03844 13.4253C3.9636 13.3705 3.94773 13.265 4.00215 13.1906L9.37624 5.86058C9.43105 5.78574 9.5365 5.76949 9.61095 5.82429C9.68579 5.8791 9.70166 5.98454 9.64723 6.059L4.27314 13.389C4.21834 13.4638 4.11289 13.4801 4.03844 13.4253ZM2.7118 12.4525C2.63697 12.3977 2.62072 12.2926 2.67552 12.2177L8.04964 4.88772C8.10445 4.81288 8.20952 4.79701 8.28435 4.85144C8.35881 4.90624 8.37507 5.01169 8.32026 5.08614L2.94614 12.4165C2.89171 12.491 2.78626 12.5073 2.7118 12.4525Z" fill="white"/>
<path d="M10.5914 0.889477L12.6792 2.42019C12.9675 2.63153 13.1411 2.88476 13.067 2.9858L11.4945 5.13074C11.4204 5.23178 11.1267 5.14236 10.8384 4.93102L8.75055 3.40031C8.46229 3.18897 8.28865 2.93573 8.36273 2.83469L9.93531 0.689755C10.0094 0.588716 10.3031 0.678135 10.5914 0.889477Z" fill="white"/>
</svg>
