<svg width="12" height="19" viewBox="0 0 12 19" fill="none" xmlns="http://www.w3.org/2000/svg">
<path fill-rule="evenodd" clip-rule="evenodd" d="M5.7554 17.9984C5.85896 18.0687 6.0056 18.1122 6.16812 18.1122C6.32082 18.1122 6.45991 18.0733 6.56233 18.0109C6.65871 17.9584 6.73695 17.8771 6.78041 17.7713L10.7818 8.04924C11.2036 7.33529 11.4443 6.51324 11.4443 5.63828C11.4443 2.89397 9.07987 0.669312 6.16321 0.669312C3.24617 0.669312 0.88208 2.89397 0.88208 5.63828C0.88208 5.96483 0.915721 6.28382 0.979595 6.59298C0.982996 6.62133 0.989043 6.64928 0.997736 6.67725C1.11528 7.19731 1.31974 7.68715 1.59565 8.13351L5.56188 17.7713C5.60157 17.8673 5.67036 17.9448 5.7554 17.9984ZM7.68372 10.3975L6.17681 13.9366L4.67294 10.4061C5.14538 10.5369 5.6458 10.6068 6.16321 10.6068C6.69197 10.6068 7.2022 10.5335 7.68372 10.3975ZM6.16321 3.06138C4.65065 3.06138 3.42457 4.21529 3.42457 5.63828C3.42457 7.06128 4.65065 8.21438 6.16321 8.21438C7.67578 8.21438 8.90149 7.06128 8.90149 5.63828C8.90149 4.21529 7.67578 3.06138 6.16321 3.06138Z" fill="#929191"/>
</svg>
