<svg width="28" height="15" viewBox="0 0 28 15" fill="none" xmlns="http://www.w3.org/2000/svg">
<path fill-rule="evenodd" clip-rule="evenodd" d="M7.90378 7.30525L5.37109 13.574C6.17576 13.899 7.03563 14.0661 7.90378 14.0661C11.638 14.0661 14.665 11.039 14.665 7.30525C14.665 3.57108 11.638 0.544067 7.90378 0.544067V7.30525Z" fill="white"/>
<path fill-rule="evenodd" clip-rule="evenodd" d="M6.95943 7.6178L4.20945 13.7943C1.76977 12.7081 0.198242 10.288 0.198242 7.6178H6.95943Z" fill="white"/>
<path fill-rule="evenodd" clip-rule="evenodd" d="M7.04442 7.00817H0.283203C0.283203 3.27437 3.31063 0.247314 7.04442 0.247314V7.00817ZM6.53456 6.4983H0.973742C0.973742 3.42705 3.46331 0.937484 6.53456 0.937484V6.4983Z" fill="white"/>
<path d="M27.4806 0.733032H17.3148C17.0595 0.733032 16.8525 0.971531 16.8525 1.26575C16.8525 1.55996 17.0595 1.79846 17.3148 1.79846H27.4806C27.7359 1.79846 27.9428 1.55996 27.9428 1.26575C27.9428 0.971531 27.7359 0.733032 27.4806 0.733032Z" fill="white"/>
<path d="M27.4806 3.6217H17.3148C17.0595 3.6217 16.8525 3.8602 16.8525 4.15442C16.8525 4.44863 17.0595 4.68717 17.3148 4.68717H27.4806C27.7359 4.68717 27.9428 4.44863 27.9428 4.15442C27.9428 3.8602 27.7359 3.6217 27.4806 3.6217Z" fill="white"/>
<path d="M27.4806 6.58557H17.3148C17.0595 6.58557 16.8525 6.82407 16.8525 7.11829C16.8525 7.4125 17.0595 7.65104 17.3148 7.65104H27.4806C27.7359 7.65104 27.9428 7.4125 27.9428 7.11829C27.9428 6.82407 27.7359 6.58557 27.4806 6.58557Z" fill="white"/>
<path d="M27.4806 9.46753H17.3148C17.0595 9.46753 16.8525 9.70603 16.8525 10.0002C16.8525 10.2945 17.0595 10.533 17.3148 10.533H27.4806C27.7359 10.533 27.9428 10.2945 27.9428 10.0002C27.9428 9.70603 27.7359 9.46753 27.4806 9.46753Z" fill="white"/>
<path d="M23.4282 12.4559H17.1387C16.9806 12.4559 16.8525 12.6944 16.8525 12.9886C16.8525 13.2829 16.9806 13.5214 17.1387 13.5214H23.4282C23.5862 13.5214 23.7143 13.2829 23.7143 12.9886C23.7143 12.6944 23.5862 12.4559 23.4282 12.4559Z" fill="white"/>
</svg>
