<svg width="26" height="23" viewBox="0 0 26 23" fill="none" xmlns="http://www.w3.org/2000/svg">
<path fill-rule="evenodd" clip-rule="evenodd" d="M17.7115 0.664307H8.16105C5.61289 0.664307 3.35234 1.95729 2.00267 3.91962C2.03744 3.93474 2.07184 3.95061 2.1051 3.96838L12.9108 9.70381L23.7164 3.96838C23.7625 3.94381 23.8094 3.92227 23.8582 3.90299C22.507 1.95011 20.2525 0.664307 17.7115 0.664307ZM1.06798 5.79691C0.823441 6.53354 0.69043 7.3193 0.69043 8.1353V14.6724C0.69043 18.7815 4.05195 22.1434 8.16105 22.1434H17.7115C21.8206 22.1434 25.1821 18.7815 25.1821 14.6724V8.1353C25.1821 7.31099 25.0464 6.51691 24.797 5.77386L13.7003 11.6646C13.4611 11.7912 13.1833 11.8479 12.9108 11.8404C12.6383 11.8479 12.3605 11.7912 12.1212 11.6646L1.06798 5.79691Z" fill="#8D8C8C"/>
</svg>
