<svg width="39" height="28" viewBox="0 0 39 28" fill="none" xmlns="http://www.w3.org/2000/svg">
<path fill-rule="evenodd" clip-rule="evenodd" d="M3.33839 0.212402H35.2448C36.8896 0.212402 38.2355 1.55791 38.2355 3.20314V24.8201C38.2355 26.4654 36.8896 27.8109 35.2448 27.8109H3.33839C1.69354 27.8109 0.347656 26.4654 0.347656 24.8201V3.20314C0.347656 1.55791 1.69354 0.212402 3.33839 0.212402ZM25.3901 8.24465L26.3648 9.61774L29.1178 7.66298C29.2807 7.54733 29.5094 7.58587 29.6254 7.74915V7.74953C29.7414 7.91281 29.7025 8.14108 29.5392 8.25711L26.5084 10.4088C26.5012 10.4149 26.4937 10.4209 26.4857 10.4266H26.4854C26.4442 10.4561 26.3984 10.4757 26.3516 10.4859L26.35 10.4863L26.3429 10.4878H26.3414L26.3342 10.4893H26.3327L26.3251 10.4904L26.324 10.4908L26.3164 10.4916L26.3153 10.492L26.3073 10.4927C26.2635 10.4973 26.2189 10.4935 26.1762 10.4818L26.1754 10.4814L26.1679 10.4795L26.1667 10.4791L26.1509 10.4742L26.1497 10.4734L26.1429 10.4712L26.1414 10.4708L26.1346 10.4681L26.1331 10.4674L26.1263 10.4647L26.1248 10.464L26.1184 10.461C26.0609 10.4349 26.0095 10.3941 25.9702 10.3393L24.7872 8.67249C24.6697 8.50695 24.709 8.27526 24.8745 8.15771L24.8749 8.15735C25.0405 8.0398 25.2721 8.07911 25.3901 8.24465ZM13.1414 4.11174L14.1161 5.48484L16.8687 3.53006C17.032 3.41441 17.2603 3.45297 17.3763 3.61625L17.3767 3.61662C17.4924 3.77989 17.4538 4.00818 17.2905 4.12421L14.2597 6.27589C14.2525 6.28193 14.2446 6.28799 14.2371 6.29366H14.2367C14.1955 6.32314 14.1497 6.34279 14.1029 6.35299L14.1014 6.35338L14.0942 6.35489H14.0923L14.0855 6.3564H14.084L14.0764 6.35753L14.0749 6.3579L14.0677 6.35904H14.0662L14.0586 6.3598C14.0144 6.36434 13.9698 6.36055 13.9275 6.34884L13.9264 6.34845L13.9188 6.34657L13.918 6.3462L13.9022 6.34127L13.901 6.34052L13.8939 6.33824L13.8927 6.33788L13.8859 6.33524L13.8844 6.33448L13.8776 6.33182L13.8761 6.33107L13.8697 6.32806C13.8122 6.30198 13.7608 6.26115 13.7215 6.20635L12.5385 4.53957C12.421 4.37403 12.4599 4.14234 12.6258 4.0248L12.6262 4.02443C12.7918 3.90689 13.0234 3.94619 13.1414 4.11174ZM32.2593 22.0773H36.6561C37.1021 22.0773 37.4664 22.4421 37.4664 22.8877C37.4664 23.3337 37.1021 23.698 36.6561 23.698H32.2593C31.8137 23.698 31.449 23.3337 31.449 22.8877C31.449 22.4421 31.8137 22.0773 32.2593 22.0773ZM18.3548 17.6576H32.516C32.962 17.6576 33.3263 18.0223 33.3263 18.4679C33.3263 18.9135 32.962 19.2782 32.516 19.2782H18.3548C17.9092 19.2782 17.5445 18.9135 17.5445 18.4679C17.5445 18.0223 17.9092 17.6576 18.3548 17.6576ZM16.4466 13.1985H26.18C26.6256 13.1985 26.9903 13.5632 26.9903 14.0088C26.9903 14.4548 26.6256 14.8191 26.18 14.8191H16.4466C16.001 14.8191 15.6362 14.4548 15.6362 14.0088C15.6362 13.5632 16.001 13.1985 16.4466 13.1985ZM7.26231 8.75148H22.1725C22.6182 8.75148 22.9829 9.11583 22.9829 9.56144C22.9829 10.0074 22.6182 10.3722 22.1725 10.3722H7.26231C6.81633 10.3722 6.45196 10.0074 6.45196 9.56144C6.45196 9.11583 6.81633 8.75148 7.26231 8.75148ZM2.08511 4.45453H10.151C10.5966 4.45453 10.9613 4.81926 10.9613 5.26486C10.9613 5.71047 10.5966 6.07519 10.151 6.07519H2.08511C1.63913 6.07519 1.27477 5.71047 1.27477 5.26486C1.27477 4.81926 1.63913 4.45453 2.08511 4.45453ZM24.1027 0.986061H24.4724V12.9279H24.1027V0.986061ZM24.4724 15.0901V17.3851H24.1027V15.0901H24.4724ZM24.4724 19.5507V27.0334H24.1027V19.5507H24.4724ZM28.829 0.986061H29.1987V7.29523C29.1707 7.30619 29.1431 7.32055 29.1178 7.33869L28.829 7.54354V0.986061ZM29.1987 8.82328V17.3851H28.829V9.08597L29.1987 8.82328ZM29.1987 19.5507V27.0334H28.829V19.5507H29.1987ZM33.7394 0.986061H34.109V21.764H33.7394V0.986061ZM34.109 24.0113V27.0334H33.7394V24.0113H34.109ZM4.51874 0.986061H4.88839V4.14726H4.51874V0.986061ZM4.88839 6.38248V27.0334H4.51874V6.38248H4.88839ZM9.24505 0.986061H9.61468V4.14726H9.24505V0.986061ZM9.61468 6.38248V8.44648H9.24505V6.38248H9.61468ZM9.61468 10.6772V27.0334H9.24505V10.6772H9.61468ZM14.1554 0.986061H14.525V4.86991L14.1554 5.13221V0.986061ZM14.525 6.41234V8.44648H14.1554V6.66177C14.1834 6.65081 14.211 6.63646 14.2367 6.61831L14.2371 6.61794C14.2446 6.61228 14.2525 6.60661 14.2597 6.60056L14.525 6.41234ZM14.525 10.6772V27.0334H14.1554V10.6772H14.525ZM19.1236 0.986061H19.4932V8.44648H19.1236V0.986061ZM19.4932 10.6772V12.9279H19.1236V10.6772H19.4932ZM19.4932 15.0901V17.3851H19.1236V15.0901H19.4932ZM19.4932 19.5507V27.0334H19.1236V19.5507H19.4932Z" fill="#D7D7D6"/>
</svg>
