<svg width="32" height="35" viewBox="0 0 32 35" fill="none" xmlns="http://www.w3.org/2000/svg">
<path fill-rule="evenodd" clip-rule="evenodd" d="M4.81874 0.351074H26.6723C29.2099 0.351074 31.286 2.42718 31.286 4.96476V30.0253C31.286 32.5633 29.2099 34.6394 26.6723 34.6394H4.81874C2.28117 34.6394 0.205078 32.5633 0.205078 30.0253V4.96476C0.205078 2.42718 2.28117 0.351074 4.81874 0.351074ZM22.0859 29.1844H26.1122C26.3942 29.1844 26.6247 29.4149 26.6247 29.6968V29.6973C26.6247 29.9792 26.3942 30.2097 26.1122 30.2097H22.0859C21.8036 30.2097 21.5734 29.9792 21.5734 29.6973V29.6968C21.5734 29.4149 21.8036 29.1844 22.0859 29.1844ZM22.0859 27.3592H27.3451C27.6274 27.3592 27.8576 27.5898 27.8576 27.8717V27.8721C27.8576 28.154 27.6274 28.3846 27.3451 28.3846H22.0859C21.8036 28.3846 21.5734 28.154 21.5734 27.8721V27.8717C21.5734 27.5898 21.8036 27.3592 22.0859 27.3592ZM22.0859 19.0692H26.1122C26.3942 19.0692 26.6247 19.2994 26.6247 19.5813V19.5817C26.6247 19.8637 26.3942 20.0942 26.1122 20.0942H22.0859C21.8036 20.0942 21.5734 19.8637 21.5734 19.5817V19.5813C21.5734 19.2994 21.8036 19.0692 22.0859 19.0692ZM22.0859 17.2441H27.3451C27.6274 17.2441 27.8576 17.4746 27.8576 17.7565V17.757C27.8576 18.0389 27.6274 18.2694 27.3451 18.2694H22.0859C21.8036 18.2694 21.5734 18.0389 21.5734 17.757V17.7565C21.5734 17.4746 21.8036 17.2441 22.0859 17.2441ZM22.0859 9.00051H26.1122C26.3942 9.00051 26.6247 9.23108 26.6247 9.51303C26.6247 9.79536 26.3942 10.0256 26.1122 10.0256H22.0859C21.8036 10.0256 21.5734 9.79536 21.5734 9.51303C21.5734 9.23108 21.8036 9.00051 22.0859 9.00051ZM22.0859 7.17541H27.3451C27.6274 7.17541 27.8576 7.40598 27.8576 7.68793V7.6883C27.8576 7.97026 27.6274 8.20075 27.3451 8.20075H22.0859C21.8036 8.20075 21.5734 7.97026 21.5734 7.6883V7.68793C21.5734 7.40598 21.8036 7.17541 22.0859 7.17541ZM16.4472 23.5078C15.3557 23.5078 14.4701 24.3934 14.4701 25.4849C14.4701 26.2624 14.9191 26.9348 15.5711 27.2579H14.1292C13.4739 27.2579 12.9379 27.7938 12.9379 28.4492V30.198C12.9379 30.8534 13.4739 31.3893 14.1292 31.3893H18.7932C19.4485 31.3893 19.9845 30.8534 19.9845 30.198V28.4492C19.9845 27.7938 19.4485 27.2579 18.7932 27.2579H17.3237C17.976 26.9348 18.4247 26.2624 18.4247 25.4849C18.4247 24.3934 17.5395 23.5078 16.4472 23.5078ZM16.4472 13.3179C15.3557 13.3179 14.4701 14.2031 14.4701 15.295C14.4701 16.0724 14.9191 16.7448 15.5711 17.068H14.1292C13.4739 17.068 12.9379 17.6039 12.9379 18.2592V20.008C12.9379 20.6634 13.4739 21.1997 14.1292 21.1997H18.7932C19.4485 21.1997 19.9845 20.6634 19.9845 20.008V18.2592C19.9845 17.6039 19.4485 17.068 18.7932 17.068H17.3237C17.976 16.7448 18.4247 16.0724 18.4247 15.295C18.4247 14.2031 17.5395 13.3179 16.4472 13.3179ZM16.4472 3.32103C15.3557 3.32103 14.4701 4.20659 14.4701 5.29812C14.4701 6.07557 14.9188 6.74795 15.5711 7.0711H14.1292C13.4739 7.0711 12.9379 7.60702 12.9379 8.26239V10.0115C12.9379 10.6669 13.4739 11.2029 14.1292 11.2029H18.7932C19.4485 11.2029 19.9845 10.6669 19.9845 10.0115V8.26239C19.9845 7.60702 19.4485 7.0711 18.7932 7.0711H17.3237C17.976 6.74795 18.4247 6.07557 18.4247 5.29812C18.4247 4.20659 17.5395 3.32103 16.4472 3.32103ZM4.34252 27.4091L5.53458 29.0872L8.90024 26.6978C9.0998 26.5557 9.37912 26.6033 9.52047 26.8029L9.52086 26.8033C9.66259 27.0028 9.61533 27.2817 9.41578 27.4239L5.71223 30.0528L5.68237 30.076C5.64948 30.0994 5.6147 30.1171 5.5788 30.1304L5.57162 30.1334L5.56859 30.1341L5.56105 30.1371L5.55839 30.1379L5.55045 30.1402L5.54781 30.1409L5.53988 30.1432L5.53722 30.1439L5.52928 30.1459L5.52665 30.1466L5.51832 30.1485L5.51644 30.1489L5.50775 30.1508L5.50587 30.1512L5.46429 30.1572H5.46314L5.44273 30.1587H5.44161C5.39512 30.161 5.34863 30.1557 5.30366 30.1436L5.3029 30.1432L5.27153 30.1338L5.2632 30.1307L5.26169 30.13L5.25112 30.1259L5.24318 30.1228L5.2413 30.1216L5.23334 30.1186L5.23109 30.1175L5.22353 30.1137L5.22126 30.1126L5.21408 30.1088L5.21144 30.1077L5.20463 30.1039L5.20199 30.1027L5.19481 30.0986L5.19254 30.0971C5.13849 30.0661 5.0905 30.0234 5.05232 29.9694L3.6059 27.9318C3.4619 27.7292 3.51026 27.4461 3.71284 27.3021H3.71323C3.91543 27.1581 4.19889 27.2061 4.34252 27.4091ZM4.40111 17.2402L5.56141 18.8745L8.83864 16.5475C9.03329 16.4096 9.30504 16.4556 9.443 16.6503H9.44337C9.58094 16.8449 9.53522 17.1167 9.34057 17.2546L5.73339 19.8156L5.70542 19.8372C5.66838 19.8637 5.62869 19.8833 5.58749 19.8965L5.58485 19.8973L5.56671 19.903L5.56444 19.9033L5.55651 19.9056L5.55424 19.906L5.54591 19.9078L5.54366 19.9083L5.53571 19.9101L5.53346 19.9105L5.52513 19.9117L5.52325 19.9124L5.51456 19.9135L5.51266 19.9139L5.50396 19.9151L5.50245 19.9154L5.4828 19.9169L5.48167 19.9173C5.4571 19.9192 5.43291 19.9184 5.40872 19.9162L5.38794 19.9139L5.38755 19.9135L5.34712 19.906L5.34599 19.9053L5.33691 19.9033L5.33579 19.903L5.31574 19.8969L5.30705 19.8939L5.30554 19.8935L5.29724 19.8905L5.29572 19.8898L5.2874 19.8867L5.28589 19.8859L5.27795 19.883L5.27568 19.8822L5.26813 19.8784L5.26623 19.8776L5.25868 19.8739L5.25641 19.8731L5.2496 19.8693L5.23109 19.8591L5.22844 19.858C5.17628 19.8282 5.12942 19.7858 5.092 19.7333L3.68337 17.7494C3.54353 17.5525 3.59038 17.2762 3.78768 17.1363C3.98497 16.9961 4.26127 17.043 4.40111 17.2402ZM4.3429 7.10395L5.53458 8.78208L8.89987 6.39263C9.09981 6.2509 9.37874 6.29818 9.52047 6.49812V6.49849C9.66258 6.69767 9.61534 6.97736 9.41541 7.11872L5.70881 9.74999L5.68237 9.77044V9.77081C5.65062 9.79311 5.61698 9.81126 5.58221 9.82411L5.57919 9.82521L5.57201 9.82787L5.56898 9.82898L5.56141 9.83164L5.55839 9.83237L5.55045 9.83503L5.54818 9.83584L5.53988 9.83806L5.53761 9.83887L5.52928 9.84071L5.52701 9.84108L5.51832 9.84337L5.51644 9.84374C5.4246 9.86377 5.32898 9.85435 5.24318 9.81768L5.2413 9.8165L5.23334 9.81311L5.23109 9.812L5.2239 9.8086L5.22164 9.80705L5.21408 9.80366L5.21181 9.80255L5.20463 9.79879L5.20199 9.79724L5.19518 9.7931L5.19254 9.79163L5.18573 9.78779L5.18309 9.78631L5.17665 9.78218L5.17364 9.78026L5.16759 9.77612L5.15851 9.7697L5.1555 9.76778C5.11695 9.73906 5.08142 9.70466 5.05269 9.66385L3.60627 7.62666C3.46264 7.42408 3.51027 7.14099 3.71323 6.99699V6.99662C3.91581 6.853 4.1989 6.90137 4.3429 7.10395Z" fill="#D7D7D6"/>
</svg>
