<svg width="29" height="34" viewBox="0 0 29 34" fill="none" xmlns="http://www.w3.org/2000/svg">
<path fill-rule="evenodd" clip-rule="evenodd" d="M26.0131 2.11523H2.98258C1.51461 2.11523 0.313477 3.41838 0.313477 5.01108V31.0271C0.313477 31.8235 0.613949 32.5476 1.09773 33.0726C1.58151 33.5976 2.2486 33.9234 2.98258 33.9234H26.0131C27.4811 33.9234 28.6822 32.6202 28.6822 31.0271V5.01108C28.6822 3.41838 27.4811 2.11523 26.0131 2.11523ZM9.15266 27.5038H20.7721C21.0313 27.5038 21.2434 27.7336 21.2434 28.0148C21.2434 28.296 21.0313 28.5262 20.7721 28.5262H9.15266C8.89376 28.5262 8.68173 28.296 8.68173 28.0148C8.68173 27.7336 8.89376 27.5038 9.15266 27.5038ZM9.15266 25.3102H26.0063C26.2656 25.3102 26.4776 25.5404 26.4776 25.8212V25.8215C26.4776 26.1024 26.2656 26.3326 26.0063 26.3326H9.15266C8.89376 26.3326 8.68173 26.1024 8.68173 25.8215V25.8212C8.68173 25.5404 8.89376 25.3102 9.15266 25.3102ZM9.15266 18.8672H20.7721C21.0313 18.8672 21.2434 19.097 21.2434 19.3782C21.2434 19.6594 21.0313 19.8892 20.7721 19.8892H9.15266C8.89376 19.8892 8.68173 19.6594 8.68173 19.3782C8.68173 19.097 8.89376 18.8672 9.15266 18.8672ZM9.15266 16.6736H26.0063C26.2656 16.6736 26.4776 16.9034 26.4776 17.1846C26.4776 17.4658 26.2656 17.6959 26.0063 17.6959H9.15266C8.89376 17.6959 8.68173 17.4658 8.68173 17.1846C8.68173 16.9034 8.89376 16.6736 9.15266 16.6736ZM9.15266 10.3474H20.7721C21.0313 10.3474 21.2434 10.5772 21.2434 10.8584C21.2434 11.1396 21.0313 11.3694 20.7721 11.3694H9.15266C8.89376 11.3694 8.68173 11.1396 8.68173 10.8584C8.68173 10.5772 8.89376 10.3474 9.15266 10.3474ZM9.15266 8.15377H26.0063C26.2656 8.15377 26.4776 8.38358 26.4776 8.66478C26.4776 8.94598 26.2656 9.17612 26.0063 9.17612H9.15266C8.89376 9.17612 8.68173 8.94598 8.68173 8.66478C8.68173 8.38358 8.89376 8.15377 9.15266 8.15377ZM3.17459 8.87527L4.18107 10.4132L7.02289 8.22367C7.19146 8.09404 7.42731 8.13752 7.54712 8.32045C7.66693 8.503 7.62686 8.75926 7.4583 8.88889L4.32961 11.2991C4.32205 11.3059 4.3141 11.3127 4.30579 11.3191C4.26308 11.352 4.21585 11.3739 4.16747 11.3853L4.16596 11.3856L4.15839 11.3876L4.15688 11.3879C4.08431 11.403 4.00948 11.3947 3.94182 11.3649L3.93503 11.3618V11.3615C3.87229 11.3327 3.81597 11.2855 3.77401 11.2212L2.55248 9.35454C2.43115 9.16897 2.47158 8.9093 2.64279 8.77739C2.81401 8.64586 3.05326 8.6897 3.17459 8.87527ZM3.17459 17.3951L4.18107 18.933L7.02289 16.7435C7.19146 16.6139 7.42731 16.6573 7.54712 16.8403C7.66693 17.0232 7.62686 17.2791 7.4583 17.4087L4.32961 19.8189C4.32205 19.8257 4.3141 19.8325 4.30579 19.8389C4.26308 19.8718 4.21585 19.8937 4.16747 19.9051L4.16596 19.9054L4.15839 19.9074L4.15688 19.9077C4.08431 19.9228 4.00948 19.9145 3.94182 19.8847L3.93503 19.8816C3.87229 19.8525 3.81597 19.8053 3.77401 19.741L2.55248 17.8744C2.43115 17.6888 2.47158 17.4291 2.64279 17.2972C2.81401 17.1657 3.05326 17.2095 3.17459 17.3951ZM3.17459 26.0317L4.18107 27.5696L7.02289 25.3801C7.19146 25.2505 7.42731 25.2939 7.54712 25.4768C7.66693 25.6598 7.62686 25.9157 7.4583 26.0453L4.32961 28.4555C4.32205 28.4623 4.3141 28.4691 4.30579 28.4755C4.26308 28.5084 4.21585 28.5303 4.16747 28.5417L4.16596 28.5424L4.15839 28.5439L4.15688 28.5443C4.08431 28.5594 4.00948 28.5511 3.94182 28.5212L3.93503 28.5183C3.87229 28.4892 3.81597 28.4419 3.77401 28.3776L2.55248 26.5109C2.43115 26.3254 2.47158 26.0657 2.64279 25.9342V25.9338C2.81401 25.8023 3.05326 25.8461 3.17459 26.0317Z" fill="#D7D7D6"/>
<path d="M20.9051 0.398926H8.07062C7.00418 0.398926 6.13965 1.16734 6.13965 2.11522C6.13965 3.06309 7.00418 3.83147 8.07062 3.83147H20.9051C21.9716 3.83147 22.8361 3.06309 22.8361 2.11522C22.8361 1.16734 21.9716 0.398926 20.9051 0.398926Z" fill="#D7D7D6"/>
</svg>
